<?xml version="1.0" standalone="no"?>
<!DOCTYPE svg PUBLIC "-//W3C//DTD SVG 20010904//EN"
 "http://www.w3.org/TR/2001/REC-SVG-20010904/DTD/svg10.dtd">
<svg version="1.0" xmlns="http://www.w3.org/2000/svg"
 width="1414.000000pt" height="1414.000000pt" viewBox="0 0 1414.000000 1414.000000"
 preserveAspectRatio="xMidYMid meet">

<g transform="translate(0.000000,1414.000000) scale(0.100000,-0.100000)"
fill="#000000" stroke="none">
<path d="M6840 10594 c-453 -40 -817 -129 -1190 -291 -1054 -458 -1820 -1415
-2044 -2553 -47 -241 -60 -385 -61 -675 0 -281 7 -373 50 -620 216 -1255 1111
-2306 2320 -2721 241 -83 471 -136 740 -170 196 -26 634 -26 830 0 680 87
1270 333 1792 748 164 130 421 387 551 551 424 533 668 1127 754 1832 19 158
16 622 -6 790 -119 929 -555 1729 -1261 2310 -526 433 -1124 688 -1830 781
-105 14 -551 26 -645 18z m401 -1764 c532 -54 1003 -338 1304 -785 63 -94 167
-309 204 -422 72 -220 102 -469 83 -690 -22 -249 -76 -438 -188 -663 -168
-333 -441 -606 -774 -774 -302 -151 -621 -215 -932 -188 -252 23 -427 71 -643
177 -193 94 -319 184 -477 339 -511 502 -659 1292 -366 1959 304 695 1035
1123 1789 1047z"/>
</g>
</svg>
